<svg width="930" height="734" viewBox="0 0 930 734" fill="none" xmlns="http://www.w3.org/2000/svg">
<rect x="156" width="774" height="687" fill="#007BFF"/>
<path d="M124.147 369.608L264.864 479.719C264.864 479.719 165.166 623.159 150.519 623C135.871 622.84 104.004 606.662 74.6171 583.667C45.2301 560.672 23.5574 543.713 17.7556 521.718C11.9538 499.723 124.147 369.608 124.147 369.608Z" fill="#FEFEFE"/>
<path d="M264.319 479.567C262.127 482.369 258.131 483.668 252.606 483.473C247.095 483.278 240.174 481.597 232.298 478.581C216.553 472.553 197.102 461.235 177.692 446.046C158.282 430.858 142.619 414.7 132.981 400.866C128.16 393.946 124.864 387.633 123.35 382.33C121.832 377.014 122.131 372.823 124.324 370.021C126.517 367.219 130.512 365.92 136.037 366.116C141.549 366.311 148.47 367.992 156.346 371.007C172.091 377.035 191.541 388.354 210.951 403.542C230.361 418.731 246.025 434.889 255.663 448.722C260.483 455.642 263.779 461.956 265.294 467.259C266.812 472.575 266.512 476.765 264.319 479.567Z" fill="#FEFEFE" stroke="url(#paint0_linear)"/>
<path d="M68.1471 572.552C67.2517 565.815 153.323 469.996 159.412 466.337C165.502 462.678 189.425 478.358 208.84 483.146C219.842 485.859 225.546 486.976 236.881 486.998C247.534 487.019 263.624 481.578 263.624 481.578C263.624 481.578 211.439 565.46 175.318 599.464C150.962 622.392 69.0426 579.288 68.1471 572.552Z" fill="#FEFEFE" stroke="url(#paint1_linear)"/>
<ellipse cx="196.618" cy="424.668" rx="54.3209" ry="16.0149" transform="rotate(38.0432 196.618 424.668)" fill="#BFB5B5" fill-opacity="0.5"/>
<path d="M621.837 179.527C621.837 179.527 663.874 167.321 689.5 156.141C718.034 143.693 730.093 128.216 759.5 118C789.186 107.688 838.837 104.527 838.837 104.527" stroke="#DEDADA"/>
<path d="M176.922 552.321C176.922 552.321 213.341 576.607 238.401 589.003C266.305 602.807 285.911 602.058 312.67 617.967C339.682 634.027 374.087 669.964 374.087 669.964" stroke="#DEDADA"/>
<path d="M621.837 203.527C621.837 203.527 663.874 191.321 689.5 180.141C718.034 167.693 730.093 152.216 759.5 142C789.186 131.688 838.837 128.527 838.837 128.527" stroke="#DEDADA"/>
<path d="M158.567 567.783C158.567 567.783 194.986 592.069 220.045 604.466C247.949 618.269 267.555 617.52 294.314 633.429C321.327 649.489 355.731 685.426 355.731 685.426" stroke="#DEDADA"/>
<path d="M621.837 227.527C621.837 227.527 663.874 215.321 689.5 204.141C718.034 191.693 730.093 176.216 759.5 166C789.186 155.688 838.837 152.527 838.837 152.527" stroke="#DEDADA"/>
<path d="M140.211 583.245C140.211 583.245 176.63 607.531 201.69 619.928C229.594 633.731 249.2 632.982 275.959 648.891C302.972 664.952 337.376 700.888 337.376 700.888" stroke="#DEDADA"/>
<path d="M621.837 251.527C621.837 251.527 663.874 239.321 689.5 228.141C718.034 215.693 730.093 200.216 759.5 190C789.186 179.688 838.837 176.527 838.837 176.527" stroke="#DEDADA"/>
<path d="M121.856 598.708C121.856 598.708 158.275 622.994 183.334 635.39C211.238 649.194 230.844 648.445 257.603 664.354C284.616 680.414 319.021 716.351 319.021 716.351" stroke="#DEDADA"/>
<path d="M621.837 275.527C621.837 275.527 663.874 263.321 689.5 252.141C718.034 239.693 730.093 224.216 759.5 214C789.186 203.688 838.837 200.527 838.837 200.527" stroke="#DEDADA"/>
<path d="M707.112 623.19L811.235 433.948L855.56 481.028L754.545 667.036L707.112 623.19Z" fill="white" stroke="#DEDADA"/>
<path d="M811.887 433.181L853.472 415.963L903.118 464.05L855.158 480.579L811.887 433.181Z" fill="white" stroke="#DEDADA"/>
<path d="M817.854 667.938L916.176 493.829L854.821 480.453L755.017 667.491L817.854 667.938Z" fill="white" stroke="#DEDADA"/>
<path d="M904.023 463.884L916.828 493.567L855.061 480.635L904.023 463.884Z" fill="#C4C4C4"/>
<path d="M861.152 407.713C863.077 405.733 866.242 405.688 868.222 407.612L911.419 449.592C913.399 451.516 913.445 454.682 911.52 456.662L903.821 464.585L853.453 415.636L861.152 407.713Z" fill="#C4C4C4"/>
<path d="M237.774 307.919L170.342 102.719L235.003 102.397L302.189 303.119L237.774 307.919Z" fill="white" stroke="#DEDADA"/>
<path d="M170.227 101.719L185.986 59.5595L255.013 56.0328L234.402 102.385L170.227 101.719Z" fill="white" stroke="#DEDADA"/>
<path d="M346.017 257.424L285.699 66.7858L234.08 102.546L302.845 303.084L346.017 257.424Z" fill="white" stroke="#DEDADA"/>
<path d="M255.507 55.2574L285.952 66.1304L234.376 102.494L255.507 55.2574Z" fill="#C4C4C4"/>
<path d="M185.188 48.3165C185.052 45.5584 187.177 43.212 189.935 43.0757L250.097 40.1016C252.855 39.9653 255.201 42.0906 255.337 44.8486L255.883 55.8824L185.734 59.3502L185.188 48.3165Z" fill="#C4C4C4"/>
<path d="M448.772 599.158L453.123 636.407L416.603 618.434L448.772 599.158Z" fill="#DEDADA" fill-opacity="0.5"/>
<path d="M420.631 104.377L424.982 141.626L388.462 123.653L420.631 104.377Z" fill="#DEDADA" fill-opacity="0.5"/>
<path d="M902.631 320.377L906.982 357.626L870.462 339.653L902.631 320.377Z" fill="#DEDADA" fill-opacity="0.5"/>
<circle cx="288.5" cy="386.5" r="17.5" fill="#DEDADA" fill-opacity="0.5"/>
<circle cx="738.5" cy="288.5" r="17.5" fill="#DEDADA" fill-opacity="0.5"/>
<circle cx="296.5" cy="402.5" r="17.5" fill="#DEDADA" fill-opacity="0.5"/>
<circle cx="746.5" cy="304.5" r="17.5" fill="#DEDADA" fill-opacity="0.5"/>
<path d="M103.5 614.17C103.5 614.17 139.919 638.456 164.979 650.853C192.883 664.656 212.489 663.907 239.248 679.816C266.261 695.877 300.665 731.813 300.665 731.813" stroke="#DEDADA"/>
<defs>
<linearGradient id="paint0_linear" x1="90.9197" y1="383.453" x2="271.183" y2="487.411" gradientUnits="userSpaceOnUse">
<stop stop-color="#C1B9B9"/>
<stop offset="1" stop-opacity="0"/>
</linearGradient>
<linearGradient id="paint1_linear" x1="223.667" y1="463.146" x2="154.656" y2="649.32" gradientUnits="userSpaceOnUse">
<stop stop-color="#BFB5B5" stop-opacity="0.71"/>
<stop offset="1" stop-color="#BFB5B5" stop-opacity="0"/>
</linearGradient>
</defs>
</svg>
