<svg width="831" height="733" viewBox="0 0 831 733" fill="none" xmlns="http://www.w3.org/2000/svg">
<g clip-path="url(#clip0)">
<rect width="831" height="733" fill="white"/>
<rect x="57" width="774" height="687" fill="#007BFF"/>
<path d="M21.1467 369.608L161.864 479.719C161.864 479.719 62.1665 623.159 47.5188 623C32.8711 622.84 1.00418 606.662 -28.3829 583.667C-57.7699 560.672 -79.4426 543.713 -85.2444 521.718C-91.0462 499.723 21.1467 369.608 21.1467 369.608Z" fill="#FEFEFE"/>
<path d="M161.319 479.567C159.127 482.369 155.131 483.668 149.606 483.473C144.095 483.278 137.174 481.597 129.298 478.581C113.553 472.553 94.1021 461.234 74.692 446.046C55.282 430.858 39.6185 414.7 29.9809 400.866C25.1603 393.946 21.8643 387.633 20.3499 382.33C18.8317 377.014 19.1314 372.823 21.3241 370.021C23.5168 367.219 27.5124 365.92 33.0374 366.116C38.5488 366.311 45.4699 367.992 53.3456 371.007C69.0909 377.035 88.5414 388.354 107.951 403.542C127.361 418.73 143.025 434.889 152.663 448.722C157.483 455.642 160.779 461.956 162.294 467.259C163.812 472.574 163.512 476.765 161.319 479.567Z" fill="#FEFEFE" stroke="url(#paint0_linear)"/>
<path d="M-34.8529 572.552C-35.7483 565.815 50.3226 469.996 56.412 466.337C62.5015 462.678 86.4252 478.358 105.84 483.146C116.842 485.859 122.546 486.976 133.881 486.998C144.534 487.019 160.624 481.578 160.624 481.578C160.624 481.578 108.439 565.46 72.3179 599.464C47.9623 622.392 -33.9574 579.288 -34.8529 572.552Z" fill="#FEFEFE" stroke="url(#paint1_linear)"/>
<ellipse cx="93.618" cy="424.668" rx="54.3209" ry="16.0149" transform="rotate(38.0432 93.618 424.668)" fill="#BFB5B5" fill-opacity="0.5"/>
<rect x="-613" width="668" height="686" fill="white"/>
<path d="M73.922 552.321C73.922 552.321 110.341 576.607 135.401 589.003C163.305 602.807 182.911 602.058 209.67 617.967C236.682 634.027 271.087 669.964 271.087 669.964" stroke="#DEDADA"/>
<path d="M518.837 203.527C518.837 203.527 560.874 191.321 586.5 180.142C615.034 167.693 627.093 152.216 656.5 142C686.186 131.688 735.837 128.527 735.837 128.527" stroke="#DEDADA"/>
<path d="M55.5665 567.783C55.5665 567.783 91.9855 592.069 117.045 604.466C144.949 618.269 164.555 617.52 191.314 633.429C218.327 649.489 252.731 685.426 252.731 685.426" stroke="#DEDADA"/>
<path d="M518.837 227.527C518.837 227.527 560.874 215.321 586.5 204.142C615.034 191.693 627.093 176.216 656.5 166C686.186 155.688 735.837 152.527 735.837 152.527" stroke="#DEDADA"/>
<path d="M37.211 583.245C37.211 583.245 73.6301 607.531 98.6896 619.928C126.594 633.731 146.2 632.982 172.959 648.891C199.972 664.952 234.376 700.888 234.376 700.888" stroke="#DEDADA"/>
<path d="M518.837 251.527C518.837 251.527 560.874 239.321 586.5 228.142C615.034 215.693 627.093 200.216 656.5 190C686.186 179.688 735.837 176.527 735.837 176.527" stroke="#DEDADA"/>
<path d="M18.8556 598.708C18.8556 598.708 55.2746 622.994 80.3341 635.39C108.238 649.194 127.844 648.445 154.603 664.354C181.616 680.414 216.021 716.351 216.021 716.351" stroke="#DEDADA"/>
<path d="M518.837 275.527C518.837 275.527 560.874 263.321 586.5 252.142C615.034 239.693 627.093 224.216 656.5 214C686.186 203.688 735.837 200.527 735.837 200.527" stroke="#DEDADA"/>
<path d="M134.774 307.919L67.3418 102.719L132.003 102.397L199.189 303.119L134.774 307.919Z" fill="white" stroke="#DEDADA"/>
<path d="M67.2267 101.719L82.9864 59.5595L152.013 56.0328L131.402 102.385L67.2267 101.719Z" fill="white" stroke="#DEDADA"/>
<path d="M243.017 257.424L182.699 66.7857L131.08 102.545L199.845 303.084L243.017 257.424Z" fill="white" stroke="#DEDADA"/>
<path d="M152.507 55.2573L182.952 66.1304L131.376 102.494L152.507 55.2573Z" fill="#C4C4C4"/>
<path d="M82.1883 48.3164C82.0519 45.5584 84.1773 43.212 86.9353 43.0756L147.097 40.1015C149.855 39.9652 152.201 42.0905 152.337 44.8486L152.883 55.8823L82.7337 59.3501L82.1883 48.3164Z" fill="#C4C4C4"/>
<path d="M345.772 599.158L350.123 636.407L313.603 618.434L345.772 599.158Z" fill="#DEDADA" fill-opacity="0.5"/>
<path d="M317.631 104.377L321.982 141.626L285.462 123.653L317.631 104.377Z" fill="#DEDADA" fill-opacity="0.5"/>
<path d="M799.631 320.377L803.982 357.626L767.462 339.653L799.631 320.377Z" fill="#DEDADA" fill-opacity="0.5"/>
<circle cx="185.5" cy="386.5" r="17.5" fill="#DEDADA" fill-opacity="0.5"/>
<circle cx="635.5" cy="288.5" r="17.5" fill="#DEDADA" fill-opacity="0.5"/>
<circle cx="193.5" cy="402.5" r="17.5" fill="#DEDADA" fill-opacity="0.5"/>
<circle cx="643.5" cy="304.5" r="17.5" fill="#DEDADA" fill-opacity="0.5"/>
<path d="M0.500095 614.17C0.500095 614.17 36.9191 638.456 61.9786 650.853C89.8827 664.656 109.489 663.907 136.248 679.816C163.261 695.877 197.665 731.813 197.665 731.813" stroke="#DEDADA"/>
<path d="M581.112 613.19L685.235 423.948L729.56 471.028L628.545 657.036L581.112 613.19Z" fill="white" stroke="#DEDADA"/>
<path d="M685.887 423.181L727.472 405.963L777.118 454.05L729.158 470.579L685.887 423.181Z" fill="white" stroke="#DEDADA"/>
<path d="M691.854 657.938L790.176 483.829L728.821 470.453L629.017 657.491L691.854 657.938Z" fill="white" stroke="#DEDADA"/>
<path d="M778.023 453.884L790.828 483.567L729.061 470.635L778.023 453.884Z" fill="#C4C4C4"/>
<path d="M735.152 397.713C737.077 395.733 740.242 395.688 742.222 397.612L785.419 439.592C787.399 441.516 787.445 444.682 785.52 446.662L777.821 454.585L727.453 405.636L735.152 397.713Z" fill="#C4C4C4"/>
<path d="M309.369 297.326L482.757 254.171C482.757 254.171 534.468 421.027 525.328 432.474C516.188 443.921 483.826 459.084 447.616 468.097C411.406 477.109 384.701 483.756 363.794 474.793C342.887 465.831 309.369 297.326 309.369 297.326Z" fill="#FEFEFE"/>
<path d="M482.303 254.508C483.162 257.96 481.727 261.909 478.173 266.144C474.627 270.368 469.043 274.789 461.82 279.141C447.379 287.842 426.488 296.208 402.571 302.161C378.654 308.113 356.279 310.516 339.444 309.6C331.023 309.141 324.018 307.854 318.907 305.784C313.782 303.709 310.664 300.894 309.804 297.442C308.945 293.989 310.38 290.04 313.934 285.806C317.479 281.581 323.064 277.16 330.287 272.808C344.728 264.107 365.619 255.741 389.536 249.788C413.452 243.836 435.828 241.433 452.663 242.35C461.083 242.808 468.088 244.096 473.2 246.165C478.325 248.24 481.443 251.055 482.303 254.508Z" fill="#FEFEFE" stroke="url(#paint2_linear)"/>
<path d="M434.873 466.357C429.012 462.917 406.452 336.108 407.315 329.056C408.178 322.004 435.26 312.796 450.982 300.439C459.891 293.437 464.281 289.628 471.274 280.708C477.846 272.324 483.459 256.293 483.459 256.293C483.459 256.293 517.463 349.046 522.037 398.444C525.121 431.751 440.733 469.796 434.873 466.357Z" fill="#FEFEFE" stroke="url(#paint3_linear)"/>
<ellipse cx="397.367" cy="274.086" rx="54.3209" ry="16.0149" transform="rotate(-13.9766 397.367 274.086)" fill="#BFB5B5" fill-opacity="0.5"/>
<rect x="53" width="774" height="687" fill="#007BFF"/>
<rect x="146" y="261" width="720" height="687" fill="#007BFF"/>
<path d="M86.2227 473.96L172.81 541.715C172.81 541.715 111.463 629.978 102.45 629.88C93.4371 629.782 73.8284 619.827 55.7456 605.677C37.6629 591.528 24.327 581.092 20.757 567.558C17.187 554.024 86.2227 473.96 86.2227 473.96Z" fill="#FEFEFE"/>
<path d="M172.324 541.503C171.031 543.156 168.651 543.952 165.275 543.833C161.914 543.714 157.677 542.687 152.841 540.835C143.175 537.135 131.223 530.181 119.29 520.844C107.357 511.506 97.7339 501.577 91.8173 493.084C88.8571 488.835 86.8418 484.97 85.9181 481.736C84.9906 478.488 85.191 475.986 86.4841 474.333C87.7772 472.681 90.1581 471.884 93.5334 472.004C96.8951 472.123 101.132 473.149 105.968 475.001C115.634 478.702 127.586 485.655 139.519 494.993C151.451 504.33 161.075 514.259 166.991 522.752C169.951 527.001 171.967 530.866 172.89 534.101C173.818 537.348 173.618 539.851 172.324 541.503Z" fill="#FEFEFE" stroke="url(#paint4_linear)"/>
<path d="M51.7644 598.838C51.2134 594.693 104.175 535.732 107.922 533.48C111.669 531.229 126.39 540.877 138.337 543.824C145.107 545.493 148.617 546.18 155.591 546.194C162.147 546.207 172.047 542.859 172.047 542.859C172.047 542.859 139.936 594.474 117.71 615.398C102.723 629.506 52.3154 602.983 51.7644 598.838Z" fill="#FEFEFE" stroke="url(#paint5_linear)"/>
<ellipse cx="130.818" cy="507.84" rx="33.4253" ry="9.85447" transform="rotate(38.0432 130.818 507.84)" fill="#BFB5B5" fill-opacity="0.5"/>
<path d="M480.931 773.094L400.845 637.733L446.584 627.421L525.802 759.648L480.931 773.094Z" fill="white" stroke="#DEDADA"/>
<path d="M400.555 636.776L405.128 604.546L453.454 591.286L446.104 627.24L400.555 636.776Z" fill="white" stroke="#DEDADA"/>
<path d="M549.904 720.296L477.153 594.17L446.183 627.536L526.467 759.339L549.904 720.296Z" fill="white" stroke="#DEDADA"/>
<path d="M453.861 590.467L477.257 593.437L446.218 627.435L453.861 590.467Z" fill="#C4C4C4"/>
<path d="M403.03 597.86C402.304 595.196 403.875 592.447 406.539 591.721L446.323 580.875C448.988 580.148 451.736 581.719 452.462 584.383L454.226 590.854L404.794 604.33L403.03 597.86Z" fill="#C4C4C4"/>
<rect x="-613" width="720" height="733" fill="white"/>
<rect x="107" y="687" width="726" height="46" fill="white"/>
<path d="M372.957 334.765L496.363 304.05C496.363 304.05 533.167 422.807 526.662 430.954C520.156 439.102 497.123 449.894 471.351 456.308C445.58 462.723 426.573 467.453 411.693 461.074C396.812 454.696 372.957 334.765 372.957 334.765Z" fill="#FEFEFE"/>
<path d="M495.899 304.325C496.494 306.716 495.507 309.479 492.989 312.479C490.48 315.468 486.521 318.605 481.386 321.699C471.124 327.882 456.269 333.832 439.257 338.066C422.244 342.3 406.334 344.008 394.37 343.357C388.385 343.031 383.417 342.116 379.799 340.651C376.169 339.182 374.001 337.204 373.406 334.812C372.811 332.421 373.798 329.658 376.316 326.658C378.825 323.669 382.785 320.532 387.919 317.438C398.182 311.255 413.037 305.305 430.049 301.071C447.061 296.837 462.972 295.129 474.936 295.78C480.921 296.106 485.889 297.021 489.507 298.486C493.137 299.956 495.304 301.933 495.899 304.325Z" fill="#FEFEFE" stroke="url(#paint6_linear)"/>
<path d="M462.282 455.07C458.11 452.621 442.054 362.367 442.668 357.348C443.282 352.329 462.557 345.776 473.747 336.981C480.088 331.997 483.213 329.286 488.19 322.937C492.868 316.97 496.862 305.56 496.862 305.56C496.862 305.56 521.064 371.576 524.32 406.734C526.515 430.44 466.453 457.518 462.282 455.07Z" fill="#FEFEFE" stroke="url(#paint7_linear)"/>
<ellipse cx="435.588" cy="318.225" rx="38.6619" ry="11.3983" transform="rotate(-13.9766 435.588 318.225)" fill="#BFB5B5" fill-opacity="0.5"/>
<path d="M729.957 152.765L853.363 122.05C853.363 122.05 890.167 240.807 883.662 248.954C877.156 257.102 854.123 267.894 828.351 274.308C802.58 280.723 783.573 285.453 768.693 279.074C753.812 272.696 729.957 152.765 729.957 152.765Z" fill="#FEFEFE"/>
<path d="M852.899 122.325C853.494 124.716 852.507 127.479 849.989 130.479C847.48 133.468 843.521 136.605 838.386 139.699C828.124 145.882 813.269 151.832 796.257 156.066C779.244 160.3 763.334 162.008 751.37 161.357C745.385 161.031 740.417 160.116 736.799 158.651C733.169 157.182 731.001 155.204 730.406 152.812C729.811 150.421 730.798 147.658 733.316 144.658C735.825 141.669 739.785 138.532 744.919 135.438C755.182 129.255 770.037 123.305 787.049 119.071C804.061 114.837 819.972 113.129 831.936 113.78C837.921 114.106 842.889 115.021 846.507 116.486C850.137 117.956 852.304 119.933 852.899 122.325Z" fill="#FEFEFE" stroke="url(#paint8_linear)"/>
<path d="M819.282 273.07C815.11 270.621 799.054 180.367 799.668 175.348C800.282 170.329 819.557 163.776 830.747 154.981C837.088 149.997 840.213 147.286 845.19 140.937C849.868 134.97 853.862 123.56 853.862 123.56C853.862 123.56 878.064 189.576 881.32 224.734C883.515 248.44 823.453 275.518 819.282 273.07Z" fill="#FEFEFE" stroke="url(#paint9_linear)"/>
<ellipse cx="792.588" cy="136.225" rx="38.6619" ry="11.3983" transform="rotate(-13.9766 792.588 136.225)" fill="#BFB5B5" fill-opacity="0.5"/>
<path d="M518.837 179.527C518.837 179.527 560.874 167.321 586.5 156.142C615.034 143.693 627.093 128.216 656.5 118C686.186 107.688 735.837 104.527 735.837 104.527" stroke="#DEDADA"/>
<path d="M518.837 179.527C518.837 179.527 560.874 167.321 586.5 156.142C615.034 143.693 627.093 128.216 656.5 118C686.186 107.688 735.837 104.527 735.837 104.527" stroke="#DEDADA"/>
<path d="M73.922 552.321C73.922 552.321 110.341 576.607 135.401 589.003C163.305 602.807 182.911 602.058 209.67 617.967C236.682 634.027 271.087 669.964 271.087 669.964" stroke="#DEDADA"/>
<path d="M518.837 203.527C518.837 203.527 560.874 191.321 586.5 180.142C615.034 167.693 627.093 152.216 656.5 142C686.186 131.688 735.837 128.527 735.837 128.527" stroke="#DEDADA"/>
<path d="M518.837 203.527C518.837 203.527 560.874 191.321 586.5 180.142C615.034 167.693 627.093 152.216 656.5 142C686.186 131.688 735.837 128.527 735.837 128.527" stroke="#DEDADA"/>
<path d="M55.5665 567.783C55.5665 567.783 91.9855 592.069 117.045 604.466C144.949 618.269 164.555 617.52 191.314 633.429C218.327 649.489 252.731 685.426 252.731 685.426" stroke="#DEDADA"/>
<path d="M518.837 227.527C518.837 227.527 560.874 215.321 586.5 204.142C615.034 191.693 627.093 176.216 656.5 166C686.186 155.688 735.837 152.527 735.837 152.527" stroke="#DEDADA"/>
<path d="M518.837 227.527C518.837 227.527 560.874 215.321 586.5 204.142C615.034 191.693 627.093 176.216 656.5 166C686.186 155.688 735.837 152.527 735.837 152.527" stroke="#DEDADA"/>
<path d="M37.211 583.245C37.211 583.245 73.6301 607.531 98.6896 619.928C126.594 633.731 146.2 632.982 172.959 648.891C199.972 664.952 234.376 700.888 234.376 700.888" stroke="#DEDADA"/>
<path d="M518.837 251.527C518.837 251.527 560.874 239.321 586.5 228.142C615.034 215.693 627.093 200.216 656.5 190C686.186 179.688 735.837 176.527 735.837 176.527" stroke="#DEDADA"/>
<path d="M518.837 251.527C518.837 251.527 560.874 239.321 586.5 228.142C615.034 215.693 627.093 200.216 656.5 190C686.186 179.688 735.837 176.527 735.837 176.527" stroke="#DEDADA"/>
<path d="M18.8556 598.708C18.8556 598.708 55.2746 622.994 80.3341 635.39C108.238 649.194 127.844 648.445 154.603 664.354C181.616 680.414 216.021 716.351 216.021 716.351" stroke="#DEDADA"/>
<path d="M518.837 275.527C518.837 275.527 560.874 263.321 586.5 252.142C615.034 239.693 627.093 224.216 656.5 214C686.186 203.688 735.837 200.527 735.837 200.527" stroke="#DEDADA"/>
<path d="M518.837 275.527C518.837 275.527 560.874 263.321 586.5 252.142C615.034 239.693 627.093 224.216 656.5 214C686.186 203.688 735.837 200.527 735.837 200.527" stroke="#DEDADA"/>
<path d="M669.205 576.609L745.022 438.812L777.163 472.951L703.601 608.405L669.205 576.609Z" fill="white" stroke="#DEDADA"/>
<path d="M745.7 438.076L775.776 425.623L811.771 460.488L777.076 472.445L745.7 438.076Z" fill="white" stroke="#DEDADA"/>
<path d="M749.743 609.145L821.34 482.36L776.861 472.664L704.207 608.821L749.743 609.145Z" fill="white" stroke="#DEDADA"/>
<path d="M812.682 460.422L822.024 482.076L776.965 472.642L812.682 460.422Z" fill="#C4C4C4"/>
<path d="M780.466 420.416C782.39 418.435 785.556 418.39 787.536 420.315L817.108 449.054C819.089 450.978 819.134 454.144 817.209 456.124L812.535 460.933L775.792 425.225L780.466 420.416Z" fill="#C4C4C4"/>
<path d="M181.788 272.961L139.988 121.34L186.831 123.379L228.614 271.749L181.788 272.961Z" fill="white" stroke="#DEDADA"/>
<path d="M139.959 120.34L152.822 90.4364L202.934 90.3083L186.415 123.078L139.959 120.34Z" fill="white" stroke="#DEDADA"/>
<path d="M262.191 240.091L225.048 99.3046L186.414 123.384L229.338 271.624L262.191 240.091Z" fill="white" stroke="#DEDADA"/>
<path d="M203.541 89.6251L225.339 98.6243L186.473 123.297L203.541 89.6251Z" fill="#C4C4C4"/>
<path d="M152.549 83.4338C152.547 80.6724 154.783 78.4318 157.545 78.4293L198.781 78.3921C201.543 78.3896 203.783 80.6261 203.786 83.3875L203.792 90.094L152.556 90.1403L152.549 83.4338Z" fill="#C4C4C4"/>
<path d="M345.772 599.158L350.123 636.407L313.603 618.434L345.772 599.158Z" fill="#DEDADA" fill-opacity="0.5"/>
<path d="M317.631 104.377L321.982 141.626L285.462 123.653L317.631 104.377Z" fill="#DEDADA" fill-opacity="0.5"/>
<path d="M799.631 320.377L803.982 357.626L767.462 339.653L799.631 320.377Z" fill="#DEDADA" fill-opacity="0.5"/>
<circle cx="185.5" cy="386.5" r="17.5" fill="#DEDADA" fill-opacity="0.5"/>
<circle cx="635.5" cy="288.5" r="17.5" fill="#DEDADA" fill-opacity="0.5"/>
<circle cx="193.5" cy="402.5" r="17.5" fill="#DEDADA" fill-opacity="0.5"/>
<circle cx="643.5" cy="304.5" r="17.5" fill="#DEDADA" fill-opacity="0.5"/>
<path d="M0.500095 614.17C0.500095 614.17 36.9191 638.456 61.9786 650.853C89.8827 664.656 109.489 663.907 136.248 679.816C163.261 695.877 197.665 731.813 197.665 731.813" stroke="#DEDADA"/>
</g>
<defs>
<linearGradient id="paint0_linear" x1="-12.0803" y1="383.453" x2="168.183" y2="487.411" gradientUnits="userSpaceOnUse">
<stop stop-color="#C1B9B9"/>
<stop offset="1" stop-opacity="0"/>
</linearGradient>
<linearGradient id="paint1_linear" x1="120.667" y1="463.146" x2="51.6557" y2="649.32" gradientUnits="userSpaceOnUse">
<stop stop-color="#BFB5B5" stop-opacity="0.71"/>
<stop offset="1" stop-color="#BFB5B5" stop-opacity="0"/>
</linearGradient>
<linearGradient id="paint2_linear" x1="299.835" y1="332.038" x2="492.709" y2="253.925" gradientUnits="userSpaceOnUse">
<stop stop-color="#C1B9B9"/>
<stop offset="1" stop-opacity="0"/>
</linearGradient>
<linearGradient id="paint3_linear" x1="444.342" y1="276.445" x2="548.619" y2="445.411" gradientUnits="userSpaceOnUse">
<stop stop-color="#BFB5B5" stop-opacity="0.71"/>
<stop offset="1" stop-color="#BFB5B5" stop-opacity="0"/>
</linearGradient>
<linearGradient id="paint4_linear" x1="65.7779" y1="482.48" x2="176.699" y2="546.448" gradientUnits="userSpaceOnUse">
<stop stop-color="#C1B9B9"/>
<stop offset="1" stop-opacity="0"/>
</linearGradient>
<linearGradient id="paint5_linear" x1="147.461" y1="531.517" x2="104.996" y2="646.075" gradientUnits="userSpaceOnUse">
<stop stop-color="#BFB5B5" stop-opacity="0.71"/>
<stop offset="1" stop-color="#BFB5B5" stop-opacity="0"/>
</linearGradient>
<linearGradient id="paint6_linear" x1="366.171" y1="359.47" x2="503.445" y2="303.875" gradientUnits="userSpaceOnUse">
<stop stop-color="#C1B9B9"/>
<stop offset="1" stop-opacity="0"/>
</linearGradient>
<linearGradient id="paint7_linear" x1="469.021" y1="319.903" x2="543.239" y2="440.162" gradientUnits="userSpaceOnUse">
<stop stop-color="#BFB5B5" stop-opacity="0.71"/>
<stop offset="1" stop-color="#BFB5B5" stop-opacity="0"/>
</linearGradient>
<linearGradient id="paint8_linear" x1="723.171" y1="177.47" x2="860.445" y2="121.875" gradientUnits="userSpaceOnUse">
<stop stop-color="#C1B9B9"/>
<stop offset="1" stop-opacity="0"/>
</linearGradient>
<linearGradient id="paint9_linear" x1="826.021" y1="137.903" x2="900.239" y2="258.162" gradientUnits="userSpaceOnUse">
<stop stop-color="#BFB5B5" stop-opacity="0.71"/>
<stop offset="1" stop-color="#BFB5B5" stop-opacity="0"/>
</linearGradient>
<clipPath id="clip0">
<rect width="831" height="733" fill="white"/>
</clipPath>
</defs>
</svg>
