<svg width="720" height="686" viewBox="0 0 720 686" fill="none" xmlns="http://www.w3.org/2000/svg">
<g clip-path="url(#clip0)">
<rect width="720" height="686" fill="white"/>
<rect x="-54" width="774" height="687" fill="#007BFF"/>
<path d="M-89.8533 369.608L50.8638 479.719C50.8638 479.719 -48.8335 623.159 -63.4812 623C-78.1289 622.84 -109.996 606.662 -139.383 583.667C-168.77 560.672 -190.443 543.713 -196.244 521.718C-202.046 499.723 -89.8533 369.608 -89.8533 369.608Z" fill="#FEFEFE"/>
<path d="M50.3193 479.567C48.1266 482.369 44.1311 483.668 38.6061 483.473C33.0947 483.278 26.1735 481.597 18.2979 478.581C2.55259 472.553 -16.8979 461.235 -36.308 446.046C-55.718 430.858 -71.3815 414.7 -81.0191 400.866C-85.8397 393.946 -89.1357 387.633 -90.6501 382.33C-92.1683 377.014 -91.8686 372.823 -89.6759 370.021C-87.4832 367.219 -83.4876 365.92 -77.9626 366.116C-72.4512 366.311 -65.5301 367.992 -57.6544 371.007C-41.9091 377.035 -22.4586 388.354 -3.0486 403.542C16.3614 418.731 32.0249 434.889 41.6625 448.722C46.4831 455.642 49.7791 461.956 51.2936 467.259C52.8117 472.575 52.512 476.765 50.3193 479.567Z" fill="#FEFEFE" stroke="url(#paint0_linear)"/>
<path d="M-145.853 572.552C-146.748 565.815 -60.6774 469.996 -54.588 466.337C-48.4985 462.678 -24.5748 478.358 -5.1596 483.146C5.84215 485.859 11.5461 486.976 22.8808 486.998C33.534 487.019 49.624 481.578 49.624 481.578C49.624 481.578 -2.56088 565.46 -38.6821 599.464C-63.0377 622.392 -144.957 579.288 -145.853 572.552Z" fill="#FEFEFE" stroke="url(#paint1_linear)"/>
<ellipse cx="-17.382" cy="424.668" rx="54.3209" ry="16.0149" transform="rotate(38.0432 -17.382 424.668)" fill="#BFB5B5" fill-opacity="0.5"/>
<path d="M-37.078 552.321C-37.078 552.321 -0.658983 576.607 24.4005 589.003C52.3046 602.807 71.9106 602.058 98.6698 617.967C125.682 634.027 160.087 669.964 160.087 669.964" stroke="#DEDADA"/>
<path d="M407.837 203.527C407.837 203.527 449.874 191.321 475.5 180.142C504.034 167.693 516.093 152.216 545.5 142C575.186 131.688 624.837 128.527 624.837 128.527" stroke="#DEDADA"/>
<path d="M-55.4335 567.783C-55.4335 567.783 -19.0145 592.069 6.04503 604.466C33.9491 618.269 53.5551 617.52 80.3144 633.429C107.327 649.489 141.731 685.426 141.731 685.426" stroke="#DEDADA"/>
<path d="M407.837 227.527C407.837 227.527 449.874 215.321 475.5 204.142C504.034 191.693 516.093 176.216 545.5 166C575.186 155.688 624.837 152.527 624.837 152.527" stroke="#DEDADA"/>
<path d="M-73.789 583.245C-73.789 583.245 -37.3699 607.531 -12.3104 619.928C15.5936 633.731 35.1997 632.982 61.9589 648.891C88.9715 664.952 123.376 700.888 123.376 700.888" stroke="#DEDADA"/>
<path d="M407.837 251.527C407.837 251.527 449.874 239.321 475.5 228.142C504.034 215.693 516.093 200.216 545.5 190C575.186 179.688 624.837 176.527 624.837 176.527" stroke="#DEDADA"/>
<path d="M-92.1444 598.708C-92.1444 598.708 -55.7254 622.994 -30.6659 635.39C-2.76185 649.194 16.8442 648.445 43.6034 664.354C70.6161 680.414 105.021 716.351 105.021 716.351" stroke="#DEDADA"/>
<path d="M407.837 275.527C407.837 275.527 449.874 263.321 475.5 252.142C504.034 239.693 516.093 224.216 545.5 214C575.186 203.688 624.837 200.527 624.837 200.527" stroke="#DEDADA"/>
<path d="M23.7737 307.919L-43.6582 102.719L21.0035 102.397L88.1886 303.119L23.7737 307.919Z" fill="white" stroke="#DEDADA"/>
<path d="M-43.7733 101.719L-28.0136 59.5595L41.0131 56.0328L20.4017 102.385L-43.7733 101.719Z" fill="white" stroke="#DEDADA"/>
<path d="M132.017 257.424L71.6985 66.7857L20.0797 102.545L88.8447 303.084L132.017 257.424Z" fill="white" stroke="#DEDADA"/>
<path d="M41.5072 55.2573L71.9516 66.1304L20.3763 102.494L41.5072 55.2573Z" fill="#C4C4C4"/>
<path d="M-28.8117 48.3164C-28.9481 45.5584 -26.8227 43.212 -24.0647 43.0756L36.0966 40.1015C38.8547 39.9652 41.201 42.0905 41.3374 44.8486L41.8828 55.8823L-28.2663 59.3501L-28.8117 48.3164Z" fill="#C4C4C4"/>
<path d="M234.772 599.158L239.123 636.407L202.603 618.434L234.772 599.158Z" fill="#DEDADA" fill-opacity="0.5"/>
<path d="M206.631 104.377L210.982 141.626L174.462 123.653L206.631 104.377Z" fill="#DEDADA" fill-opacity="0.5"/>
<path d="M688.631 320.377L692.982 357.626L656.462 339.653L688.631 320.377Z" fill="#DEDADA" fill-opacity="0.5"/>
<circle cx="74.5" cy="386.5" r="17.5" fill="#DEDADA" fill-opacity="0.5"/>
<circle cx="524.5" cy="288.5" r="17.5" fill="#DEDADA" fill-opacity="0.5"/>
<circle cx="82.5" cy="402.5" r="17.5" fill="#DEDADA" fill-opacity="0.5"/>
<circle cx="532.5" cy="304.5" r="17.5" fill="#DEDADA" fill-opacity="0.5"/>
<path d="M-110.5 614.17C-110.5 614.17 -74.0809 638.456 -49.0214 650.853C-21.1173 664.656 -1.51127 663.907 25.248 679.816C52.2606 695.877 86.6651 731.813 86.6651 731.813" stroke="#DEDADA"/>
<path d="M470.112 613.19L574.235 423.948L618.56 471.028L517.545 657.036L470.112 613.19Z" fill="white" stroke="#DEDADA"/>
<path d="M574.887 423.181L616.472 405.963L666.118 454.05L618.158 470.579L574.887 423.181Z" fill="white" stroke="#DEDADA"/>
<path d="M580.854 657.938L679.176 483.829L617.821 470.453L518.017 657.491L580.854 657.938Z" fill="white" stroke="#DEDADA"/>
<path d="M667.023 453.884L679.828 483.567L618.061 470.635L667.023 453.884Z" fill="#C4C4C4"/>
<path d="M624.152 397.713C626.077 395.733 629.242 395.688 631.222 397.612L674.419 439.592C676.399 441.516 676.445 444.682 674.52 446.662L666.821 454.585L616.453 405.636L624.152 397.713Z" fill="#C4C4C4"/>
<path d="M198.369 297.326L371.757 254.171C371.757 254.171 423.468 421.027 414.328 432.474C405.188 443.921 372.826 459.084 336.616 468.097C300.406 477.109 273.701 483.756 252.794 474.793C231.887 465.831 198.369 297.326 198.369 297.326Z" fill="#FEFEFE"/>
<path d="M371.303 254.508C372.162 257.96 370.727 261.909 367.173 266.143C363.627 270.368 358.043 274.789 350.82 279.141C336.379 287.842 315.488 296.208 291.571 302.161C267.654 308.113 245.279 310.516 228.444 309.6C220.023 309.141 213.018 307.854 207.907 305.784C202.782 303.709 199.664 300.894 198.804 297.441C197.945 293.989 199.38 290.04 202.934 285.805C206.479 281.581 212.064 277.16 219.287 272.808C233.728 264.107 254.619 255.741 278.536 249.788C302.452 243.836 324.828 241.433 341.663 242.349C350.083 242.808 357.088 244.095 362.2 246.165C367.325 248.24 370.443 251.055 371.303 254.508Z" fill="#FEFEFE" stroke="url(#paint2_linear)"/>
<path d="M323.873 466.356C318.012 462.917 295.452 336.107 296.315 329.056C297.178 322.004 324.26 312.796 339.982 300.439C348.891 293.437 353.281 289.628 360.274 280.708C366.846 272.324 372.459 256.293 372.459 256.293C372.459 256.293 406.463 349.046 411.037 398.443C414.121 431.751 329.733 469.796 323.873 466.356Z" fill="#FEFEFE" stroke="url(#paint3_linear)"/>
<ellipse cx="286.367" cy="274.086" rx="54.3209" ry="16.0149" transform="rotate(-13.9766 286.367 274.086)" fill="#BFB5B5" fill-opacity="0.5"/>
<rect x="-58" width="774" height="687" fill="#007BFF"/>
<rect x="35" y="261" width="720" height="687" fill="#007BFF"/>
<path d="M-24.7773 473.96L61.8102 541.715C61.8102 541.715 0.46341 629.978 -8.54974 629.88C-17.5629 629.782 -37.1716 619.827 -55.2544 605.677C-73.3371 591.528 -86.673 581.092 -90.243 567.558C-93.813 554.024 -24.7773 473.96 -24.7773 473.96Z" fill="#FEFEFE"/>
<path d="M61.3245 541.503C60.0314 543.156 57.6505 543.952 54.2752 543.833C50.9135 543.714 46.677 542.687 41.841 540.835C32.1748 537.135 20.2229 530.181 8.29008 520.844C-3.64273 511.506 -13.2661 501.577 -19.1827 493.084C-22.1429 488.835 -24.1582 484.97 -25.0819 481.736C-26.0094 478.488 -25.809 475.986 -24.5159 474.333C-23.2228 472.681 -20.8419 471.884 -17.4666 472.004C-14.1049 472.123 -9.86844 473.149 -5.03235 475.001C4.63382 478.702 16.5857 485.655 28.5185 494.993C40.4513 504.33 50.0747 514.259 55.9913 522.752C58.9515 527.001 60.9668 530.866 61.8905 534.101C62.818 537.348 62.6176 539.851 61.3245 541.503Z" fill="#FEFEFE" stroke="url(#paint4_linear)"/>
<path d="M-59.2356 598.838C-59.7866 594.693 -6.82458 535.732 -3.07754 533.48C0.669496 531.229 15.3904 540.877 27.3372 543.824C34.1069 545.493 37.6167 546.18 44.5913 546.194C51.1466 546.207 61.0473 542.859 61.0473 542.859C61.0473 542.859 28.9363 594.474 6.70981 615.398C-8.27692 629.506 -58.6846 602.983 -59.2356 598.838Z" fill="#FEFEFE" stroke="url(#paint5_linear)"/>
<ellipse cx="19.8175" cy="507.84" rx="33.4253" ry="9.85447" transform="rotate(38.0432 19.8175 507.84)" fill="#BFB5B5" fill-opacity="0.5"/>
<path d="M369.931 773.094L289.845 637.733L335.584 627.422L414.802 759.648L369.931 773.094Z" fill="white" stroke="#DEDADA"/>
<path d="M289.555 636.776L294.128 604.546L342.454 591.286L335.104 627.24L289.555 636.776Z" fill="white" stroke="#DEDADA"/>
<path d="M438.904 720.296L366.153 594.17L335.183 627.536L415.467 759.339L438.904 720.296Z" fill="white" stroke="#DEDADA"/>
<path d="M342.861 590.467L366.257 593.437L335.218 627.435L342.861 590.467Z" fill="#C4C4C4"/>
<path d="M292.03 597.86C291.304 595.196 292.875 592.447 295.539 591.721L335.323 580.875C337.988 580.148 340.736 581.719 341.462 584.383L343.226 590.854L293.794 604.33L292.03 597.86Z" fill="#C4C4C4"/>
<path d="M261.957 334.765L385.363 304.05C385.363 304.05 422.167 422.807 415.662 430.954C409.156 439.102 386.123 449.894 360.351 456.308C334.58 462.723 315.573 467.453 300.693 461.074C285.812 454.696 261.957 334.765 261.957 334.765Z" fill="#FEFEFE"/>
<path d="M384.899 304.325C385.494 306.716 384.507 309.479 381.989 312.479C379.48 315.468 375.521 318.605 370.386 321.699C360.124 327.882 345.269 333.832 328.257 338.066C311.244 342.3 295.334 344.008 283.37 343.357C277.385 343.031 272.417 342.116 268.799 340.651C265.169 339.182 263.001 337.204 262.406 334.812C261.811 332.421 262.798 329.658 265.316 326.658C267.825 323.669 271.785 320.532 276.919 317.438C287.182 311.255 302.037 305.305 319.049 301.071C336.061 296.837 351.972 295.129 363.936 295.78C369.921 296.106 374.889 297.021 378.507 298.486C382.137 299.956 384.304 301.933 384.899 304.325Z" fill="#FEFEFE" stroke="url(#paint6_linear)"/>
<path d="M351.282 455.07C347.11 452.621 331.054 362.367 331.668 357.348C332.282 352.329 351.557 345.776 362.747 336.981C369.088 331.997 372.213 329.286 377.19 322.937C381.868 316.97 385.862 305.56 385.862 305.56C385.862 305.56 410.064 371.576 413.32 406.734C415.515 430.44 355.453 457.518 351.282 455.07Z" fill="#FEFEFE" stroke="url(#paint7_linear)"/>
<ellipse cx="324.588" cy="318.225" rx="38.6619" ry="11.3983" transform="rotate(-13.9766 324.588 318.225)" fill="#BFB5B5" fill-opacity="0.5"/>
<path d="M618.957 152.765L742.363 122.05C742.363 122.05 779.167 240.807 772.662 248.954C766.156 257.102 743.123 267.894 717.351 274.308C691.58 280.723 672.573 285.453 657.693 279.074C642.812 272.696 618.957 152.765 618.957 152.765Z" fill="#FEFEFE"/>
<path d="M741.899 122.325C742.494 124.716 741.507 127.479 738.989 130.479C736.48 133.468 732.521 136.605 727.386 139.699C717.124 145.882 702.269 151.832 685.257 156.066C668.244 160.3 652.334 162.008 640.37 161.357C634.385 161.031 629.417 160.116 625.799 158.651C622.169 157.182 620.001 155.204 619.406 152.812C618.811 150.421 619.798 147.658 622.316 144.658C624.825 141.669 628.785 138.532 633.919 135.438C644.182 129.255 659.037 123.305 676.049 119.071C693.061 114.837 708.972 113.129 720.936 113.78C726.921 114.106 731.889 115.021 735.507 116.486C739.137 117.956 741.304 119.933 741.899 122.325Z" fill="#FEFEFE" stroke="url(#paint8_linear)"/>
<path d="M708.282 273.07C704.11 270.621 688.054 180.367 688.668 175.348C689.282 170.329 708.557 163.776 719.747 154.981C726.088 149.997 729.213 147.286 734.19 140.937C738.868 134.97 742.862 123.56 742.862 123.56C742.862 123.56 767.064 189.576 770.32 224.734C772.515 248.44 712.453 275.518 708.282 273.07Z" fill="#FEFEFE" stroke="url(#paint9_linear)"/>
<ellipse cx="681.588" cy="136.225" rx="38.6619" ry="11.3983" transform="rotate(-13.9766 681.588 136.225)" fill="#BFB5B5" fill-opacity="0.5"/>
<path d="M407.837 179.527C407.837 179.527 449.874 167.321 475.5 156.142C504.034 143.693 516.093 128.216 545.5 118C575.186 107.688 624.837 104.527 624.837 104.527" stroke="#DEDADA"/>
<path d="M407.837 179.527C407.837 179.527 449.874 167.321 475.5 156.142C504.034 143.693 516.093 128.216 545.5 118C575.186 107.688 624.837 104.527 624.837 104.527" stroke="#DEDADA"/>
<path d="M-37.078 552.321C-37.078 552.321 -0.658983 576.607 24.4005 589.003C52.3046 602.807 71.9106 602.058 98.6698 617.967C125.682 634.027 160.087 669.964 160.087 669.964" stroke="#DEDADA"/>
<path d="M407.837 203.527C407.837 203.527 449.874 191.321 475.5 180.142C504.034 167.693 516.093 152.216 545.5 142C575.186 131.688 624.837 128.527 624.837 128.527" stroke="#DEDADA"/>
<path d="M407.837 203.527C407.837 203.527 449.874 191.321 475.5 180.142C504.034 167.693 516.093 152.216 545.5 142C575.186 131.688 624.837 128.527 624.837 128.527" stroke="#DEDADA"/>
<path d="M-55.4335 567.783C-55.4335 567.783 -19.0145 592.069 6.04503 604.466C33.9491 618.269 53.5551 617.52 80.3144 633.429C107.327 649.489 141.731 685.426 141.731 685.426" stroke="#DEDADA"/>
<path d="M407.837 227.527C407.837 227.527 449.874 215.321 475.5 204.142C504.034 191.693 516.093 176.216 545.5 166C575.186 155.688 624.837 152.527 624.837 152.527" stroke="#DEDADA"/>
<path d="M407.837 227.527C407.837 227.527 449.874 215.321 475.5 204.142C504.034 191.693 516.093 176.216 545.5 166C575.186 155.688 624.837 152.527 624.837 152.527" stroke="#DEDADA"/>
<path d="M-73.789 583.245C-73.789 583.245 -37.3699 607.531 -12.3104 619.928C15.5936 633.731 35.1997 632.982 61.9589 648.891C88.9715 664.952 123.376 700.888 123.376 700.888" stroke="#DEDADA"/>
<path d="M407.837 251.527C407.837 251.527 449.874 239.321 475.5 228.142C504.034 215.693 516.093 200.216 545.5 190C575.186 179.688 624.837 176.527 624.837 176.527" stroke="#DEDADA"/>
<path d="M407.837 251.527C407.837 251.527 449.874 239.321 475.5 228.142C504.034 215.693 516.093 200.216 545.5 190C575.186 179.688 624.837 176.527 624.837 176.527" stroke="#DEDADA"/>
<path d="M-92.1444 598.708C-92.1444 598.708 -55.7254 622.994 -30.6659 635.39C-2.76185 649.194 16.8442 648.445 43.6034 664.354C70.6161 680.414 105.021 716.351 105.021 716.351" stroke="#DEDADA"/>
<path d="M407.837 275.527C407.837 275.527 449.874 263.321 475.5 252.142C504.034 239.693 516.093 224.216 545.5 214C575.186 203.688 624.837 200.527 624.837 200.527" stroke="#DEDADA"/>
<path d="M407.837 275.527C407.837 275.527 449.874 263.321 475.5 252.142C504.034 239.693 516.093 224.216 545.5 214C575.186 203.688 624.837 200.527 624.837 200.527" stroke="#DEDADA"/>
<path d="M558.205 576.609L634.022 438.812L666.163 472.951L592.601 608.405L558.205 576.609Z" fill="white" stroke="#DEDADA"/>
<path d="M634.7 438.076L664.776 425.623L700.771 460.488L666.076 472.445L634.7 438.076Z" fill="white" stroke="#DEDADA"/>
<path d="M638.743 609.145L710.34 482.36L665.861 472.664L593.207 608.821L638.743 609.145Z" fill="white" stroke="#DEDADA"/>
<path d="M701.682 460.422L711.024 482.076L665.965 472.642L701.682 460.422Z" fill="#C4C4C4"/>
<path d="M669.466 420.416C671.39 418.435 674.556 418.39 676.536 420.315L706.108 449.054C708.089 450.978 708.134 454.144 706.209 456.124L701.535 460.933L664.792 425.225L669.466 420.416Z" fill="#C4C4C4"/>
<path d="M70.7883 272.961L28.9878 121.34L75.8313 123.379L117.614 271.749L70.7883 272.961Z" fill="white" stroke="#DEDADA"/>
<path d="M28.959 120.34L41.8218 90.4364L91.9335 90.3083L75.4152 123.078L28.959 120.34Z" fill="white" stroke="#DEDADA"/>
<path d="M151.191 240.091L114.048 99.3046L75.4141 123.384L118.338 271.624L151.191 240.091Z" fill="white" stroke="#DEDADA"/>
<path d="M92.5406 89.6251L114.339 98.6243L75.4734 123.297L92.5406 89.6251Z" fill="#C4C4C4"/>
<path d="M41.5494 83.4338C41.5469 80.6724 43.7835 78.4318 46.5449 78.4293L87.7815 78.3921C90.5429 78.3896 92.7835 80.6261 92.786 83.3875L92.7921 90.094L41.5555 90.1403L41.5494 83.4338Z" fill="#C4C4C4"/>
<path d="M234.772 599.158L239.123 636.407L202.603 618.434L234.772 599.158Z" fill="#DEDADA" fill-opacity="0.5"/>
<path d="M206.631 104.377L210.982 141.626L174.462 123.653L206.631 104.377Z" fill="#DEDADA" fill-opacity="0.5"/>
<path d="M688.631 320.377L692.982 357.626L656.462 339.653L688.631 320.377Z" fill="#DEDADA" fill-opacity="0.5"/>
<circle cx="74.5" cy="386.5" r="17.5" fill="#DEDADA" fill-opacity="0.5"/>
<circle cx="524.5" cy="288.5" r="17.5" fill="#DEDADA" fill-opacity="0.5"/>
<circle cx="82.5" cy="402.5" r="17.5" fill="#DEDADA" fill-opacity="0.5"/>
<circle cx="532.5" cy="304.5" r="17.5" fill="#DEDADA" fill-opacity="0.5"/>
<path d="M-110.5 614.17C-110.5 614.17 -74.0809 638.456 -49.0214 650.853C-21.1173 664.656 -1.51127 663.907 25.248 679.816C52.2606 695.877 86.6651 731.813 86.6651 731.813" stroke="#DEDADA"/>
</g>
<defs>
<linearGradient id="paint0_linear" x1="-123.08" y1="383.453" x2="57.1825" y2="487.411" gradientUnits="userSpaceOnUse">
<stop stop-color="#C1B9B9"/>
<stop offset="1" stop-opacity="0"/>
</linearGradient>
<linearGradient id="paint1_linear" x1="9.66733" y1="463.146" x2="-59.3443" y2="649.32" gradientUnits="userSpaceOnUse">
<stop stop-color="#BFB5B5" stop-opacity="0.71"/>
<stop offset="1" stop-color="#BFB5B5" stop-opacity="0"/>
</linearGradient>
<linearGradient id="paint2_linear" x1="188.835" y1="332.038" x2="381.709" y2="253.925" gradientUnits="userSpaceOnUse">
<stop stop-color="#C1B9B9"/>
<stop offset="1" stop-opacity="0"/>
</linearGradient>
<linearGradient id="paint3_linear" x1="333.342" y1="276.445" x2="437.619" y2="445.41" gradientUnits="userSpaceOnUse">
<stop stop-color="#BFB5B5" stop-opacity="0.71"/>
<stop offset="1" stop-color="#BFB5B5" stop-opacity="0"/>
</linearGradient>
<linearGradient id="paint4_linear" x1="-45.2221" y1="482.48" x2="65.6991" y2="546.448" gradientUnits="userSpaceOnUse">
<stop stop-color="#C1B9B9"/>
<stop offset="1" stop-opacity="0"/>
</linearGradient>
<linearGradient id="paint5_linear" x1="36.4607" y1="531.517" x2="-6.00424" y2="646.075" gradientUnits="userSpaceOnUse">
<stop stop-color="#BFB5B5" stop-opacity="0.71"/>
<stop offset="1" stop-color="#BFB5B5" stop-opacity="0"/>
</linearGradient>
<linearGradient id="paint6_linear" x1="255.171" y1="359.471" x2="392.445" y2="303.875" gradientUnits="userSpaceOnUse">
<stop stop-color="#C1B9B9"/>
<stop offset="1" stop-opacity="0"/>
</linearGradient>
<linearGradient id="paint7_linear" x1="358.021" y1="319.903" x2="432.239" y2="440.162" gradientUnits="userSpaceOnUse">
<stop stop-color="#BFB5B5" stop-opacity="0.71"/>
<stop offset="1" stop-color="#BFB5B5" stop-opacity="0"/>
</linearGradient>
<linearGradient id="paint8_linear" x1="612.171" y1="177.47" x2="749.445" y2="121.875" gradientUnits="userSpaceOnUse">
<stop stop-color="#C1B9B9"/>
<stop offset="1" stop-opacity="0"/>
</linearGradient>
<linearGradient id="paint9_linear" x1="715.021" y1="137.903" x2="789.239" y2="258.162" gradientUnits="userSpaceOnUse">
<stop stop-color="#BFB5B5" stop-opacity="0.71"/>
<stop offset="1" stop-color="#BFB5B5" stop-opacity="0"/>
</linearGradient>
<clipPath id="clip0">
<rect width="720" height="686" fill="white"/>
</clipPath>
</defs>
</svg>
